g top
v 0.000000 -0.000000 -0.000000
v 0.065263 -0.000000 -0.495722
v 0.000000 -0.000000 -0.500000
v 0.129410 -0.000000 -0.482963
v 0.191342 -0.000000 -0.461940
v 0.250000 -0.000000 -0.433013
v 0.304381 -0.000000 -0.396677
v 0.353553 -0.000000 -0.353553
v 0.396677 -0.000000 -0.304381
v 0.433013 -0.000000 -0.250000
v 0.461940 -0.000000 -0.191342
v 0.482963 -0.000000 -0.129410
v 0.495722 -0.000000 -0.065263
v 0.500000 -0.000000 -0.000000
v 0.495722 -0.000000 0.065263
v 0.482963 -0.000000 0.129409
v 0.461940 -0.000000 0.191342
v 0.433013 -0.000000 0.250000
v 0.396677 -0.000000 0.304381
v 0.353554 -0.000000 0.353553
v 0.304381 -0.000000 0.396677
v 0.250000 -0.000000 0.433013
v 0.191342 -0.000000 0.461940
v 0.129410 -0.000000 0.482963
v 0.065263 -0.000000 0.495722
v 0.000000 -0.000000 0.500000
v -0.065263 -0.000000 0.495723
v -0.129409 -0.000000 0.482963
v -0.191342 -0.000000 0.461940
v -0.250000 -0.000000 0.433013
v -0.304381 -0.000000 0.396677
v -0.353553 -0.000000 0.353554
v -0.396677 -0.000000 0.304381
v -0.433013 -0.000000 0.250000
v -0.461940 -0.000000 0.191342
v -0.482963 -0.000000 0.129409
v -0.495722 -0.000000 0.065263
v -0.500000 -0.000000 -0.000000
v -0.495722 -0.000000 -0.065263
v -0.482963 -0.000000 -0.129410
v -0.461940 -0.000000 -0.191342
v -0.433012 -0.000000 -0.250001
v -0.396676 -0.000000 -0.304381
v -0.353553 -0.000000 -0.353554
v -0.304380 -0.000000 -0.396677
v -0.249999 -0.000000 -0.433013
v -0.191341 -0.000000 -0.461940
v -0.129408 -0.000000 -0.482963
v -0.065262 -0.000000 -0.495723
vt 0.5000 0.5000
vt 0.4347 0.0043
vt 0.5000 0.0000
vt 0.3706 0.0170
vt 0.3087 0.0381
vt 0.2500 0.0670
vt 0.1956 0.1033
vt 0.1464 0.1464
vt 0.1033 0.1956
vt 0.0670 0.2500
vt 0.0381 0.3087
vt 0.0170 0.3706
vt 0.0043 0.4347
vt 0.0000 0.5000
vt 0.0043 0.5653
vt 0.0170 0.6294
vt 0.0381 0.6913
vt 0.0670 0.7500
vt 0.1033 0.8044
vt 0.1464 0.8536
vt 0.1956 0.8967
vt 0.2500 0.9330
vt 0.3087 0.9619
vt 0.3706 0.9830
vt 0.4347 0.9957
vt 0.5000 1.0000
vt 0.5653 0.9957
vt 0.6294 0.9830
vt 0.6913 0.9619
vt 0.7500 0.9330
vt 0.8044 0.8967
vt 0.8536 0.8536
vt 0.8967 0.8044
vt 0.9330 0.7500
vt 0.9619 0.6913
vt 0.9830 0.6294
vt 0.9957 0.5653
vt 1.0000 0.5000
vt 0.9957 0.4347
vt 0.9830 0.3706
vt 0.9619 0.3087
vt 0.9330 0.2500
vt 0.8967 0.1956
vt 0.8536 0.1464
vt 0.8044 0.1033
vt 0.7500 0.0670
vt 0.6913 0.0381
vt 0.6294 0.0170
vt 0.5653 0.0043
vn 0.0000 1.0000 0.0000
s off
f 1/1/1 2/2/1 3/3/1
f 1/1/1 4/4/1 2/2/1
f 1/1/1 5/5/1 4/4/1
f 1/1/1 6/6/1 5/5/1
f 1/1/1 7/7/1 6/6/1
f 1/1/1 8/8/1 7/7/1
f 1/1/1 9/9/1 8/8/1
f 1/1/1 10/10/1 9/9/1
f 1/1/1 11/11/1 10/10/1
f 1/1/1 12/12/1 11/11/1
f 1/1/1 13/13/1 12/12/1
f 1/1/1 14/14/1 13/13/1
f 1/1/1 15/15/1 14/14/1
f 1/1/1 16/16/1 15/15/1
f 1/1/1 17/17/1 16/16/1
f 1/1/1 18/18/1 17/17/1
f 1/1/1 19/19/1 18/18/1
f 1/1/1 20/20/1 19/19/1
f 1/1/1 21/21/1 20/20/1
f 1/1/1 22/22/1 21/21/1
f 1/1/1 23/23/1 22/22/1
f 1/1/1 24/24/1 23/23/1
f 1/1/1 25/25/1 24/24/1
f 1/1/1 26/26/1 25/25/1
f 1/1/1 27/27/1 26/26/1
f 1/1/1 28/28/1 27/27/1
f 1/1/1 29/29/1 28/28/1
f 1/1/1 30/30/1 29/29/1
f 1/1/1 31/31/1 30/30/1
f 1/1/1 32/32/1 31/31/1
f 1/1/1 33/33/1 32/32/1
f 1/1/1 34/34/1 33/33/1
f 1/1/1 35/35/1 34/34/1
f 1/1/1 36/36/1 35/35/1
f 1/1/1 37/37/1 36/36/1
f 1/1/1 38/38/1 37/37/1
f 1/1/1 39/39/1 38/38/1
f 1/1/1 40/40/1 39/39/1
f 1/1/1 41/41/1 40/40/1
f 1/1/1 42/42/1 41/41/1
f 1/1/1 43/43/1 42/42/1
f 1/1/1 44/44/1 43/43/1
f 1/1/1 45/45/1 44/44/1
f 1/1/1 46/46/1 45/45/1
f 1/1/1 47/47/1 46/46/1
f 1/1/1 48/48/1 47/47/1
f 1/1/1 49/49/1 48/48/1
f 1/1/1 3/3/1 49/49/1
g bottom
v 0.000000 -0.500000 -0.000000
v 0.000000 -0.500000 -0.500000
v 0.065263 -0.500000 -0.495722
v 0.129410 -0.500000 -0.482963
v 0.191342 -0.500000 -0.461940
v 0.250000 -0.500000 -0.433013
v 0.304381 -0.500000 -0.396677
v 0.353553 -0.500000 -0.353553
v 0.396677 -0.500000 -0.304381
v 0.433013 -0.500000 -0.250000
v 0.461940 -0.500000 -0.191342
v 0.482963 -0.500000 -0.129410
v 0.495722 -0.500000 -0.065263
v 0.500000 -0.500000 -0.000000
v 0.495722 -0.500000 0.065263
v 0.482963 -0.500000 0.129409
v 0.461940 -0.500000 0.191342
v 0.433013 -0.500000 0.250000
v 0.396677 -0.500000 0.304381
v 0.353554 -0.500000 0.353553
v 0.304381 -0.500000 0.396677
v 0.250000 -0.500000 0.433013
v 0.191342 -0.500000 0.461940
v 0.129410 -0.500000 0.482963
v 0.065263 -0.500000 0.495722
v 0.000000 -0.500000 0.500000
v -0.065263 -0.500000 0.495723
v -0.129409 -0.500000 0.482963
v -0.191342 -0.500000 0.461940
v -0.250000 -0.500000 0.433013
v -0.304381 -0.500000 0.396677
v -0.353553 -0.500000 0.353554
v -0.396677 -0.500000 0.304381
v -0.433013 -0.500000 0.250000
v -0.461940 -0.500000 0.191342
v -0.482963 -0.500000 0.129409
v -0.495722 -0.500000 0.065263
v -0.500000 -0.500000 -0.000000
v -0.495722 -0.500000 -0.065263
v -0.482963 -0.500000 -0.129410
v -0.461940 -0.500000 -0.191342
v -0.433012 -0.500000 -0.250001
v -0.396676 -0.500000 -0.304381
v -0.353553 -0.500000 -0.353554
v -0.304380 -0.500000 -0.396677
v -0.249999 -0.500000 -0.433013
v -0.191341 -0.500000 -0.461940
v -0.129408 -0.500000 -0.482963
v -0.065262 -0.500000 -0.495723
vt 0.5000 0.5000
vt 0.5000 1.0000
vt 0.4347 0.9957
vt 0.3706 0.9830
vt 0.3087 0.9619
vt 0.2500 0.9330
vt 0.1956 0.8967
vt 0.1464 0.8536
vt 0.1033 0.8044
vt 0.0670 0.7500
vt 0.0381 0.6913
vt 0.0170 0.6294
vt 0.0043 0.5653
vt 0.0000 0.5000
vt 0.0043 0.4347
vt 0.0170 0.3706
vt 0.0381 0.3087
vt 0.0670 0.2500
vt 0.1033 0.1956
vt 0.1464 0.1464
vt 0.1956 0.1033
vt 0.2500 0.0670
vt 0.3087 0.0381
vt 0.3706 0.0170
vt 0.4347 0.0043
vt 0.5000 0.0000
vt 0.5653 0.0043
vt 0.6294 0.0170
vt 0.6913 0.0381
vt 0.7500 0.0670
vt 0.8044 0.1033
vt 0.8536 0.1464
vt 0.8967 0.1956
vt 0.9330 0.2500
vt 0.9619 0.3087
vt 0.9830 0.3706
vt 0.9957 0.4347
vt 1.0000 0.5000
vt 0.9957 0.5653
vt 0.9830 0.6294
vt 0.9619 0.6913
vt 0.9330 0.7500
vt 0.8967 0.8044
vt 0.8536 0.8536
vt 0.8044 0.8967
vt 0.7500 0.9330
vt 0.6913 0.9619
vt 0.6294 0.9830
vt 0.5653 0.9957
vn 0.0000 -1.0000 -0.0000
s off
f 50/50/2 51/51/2 52/52/2
f 50/50/2 52/52/2 53/53/2
f 50/50/2 53/53/2 54/54/2
f 50/50/2 54/54/2 55/55/2
f 50/50/2 55/55/2 56/56/2
f 50/50/2 56/56/2 57/57/2
f 50/50/2 57/57/2 58/58/2
f 50/50/2 58/58/2 59/59/2
f 50/50/2 59/59/2 60/60/2
f 50/50/2 60/60/2 61/61/2
f 50/50/2 61/61/2 62/62/2
f 50/50/2 62/62/2 63/63/2
f 50/50/2 63/63/2 64/64/2
f 50/50/2 64/64/2 65/65/2
f 50/50/2 65/65/2 66/66/2
f 50/50/2 66/66/2 67/67/2
f 50/50/2 67/67/2 68/68/2
f 50/50/2 68/68/2 69/69/2
f 50/50/2 69/69/2 70/70/2
f 50/50/2 70/70/2 71/71/2
f 50/50/2 71/71/2 72/72/2
f 50/50/2 72/72/2 73/73/2
f 50/50/2 73/73/2 74/74/2
f 50/50/2 74/74/2 75/75/2
f 50/50/2 75/75/2 76/76/2
f 50/50/2 76/76/2 77/77/2
f 50/50/2 77/77/2 78/78/2
f 50/50/2 78/78/2 79/79/2
f 50/50/2 79/79/2 80/80/2
f 50/50/2 80/80/2 81/81/2
f 50/50/2 81/81/2 82/82/2
f 50/50/2 82/82/2 83/83/2
f 50/50/2 83/83/2 84/84/2
f 50/50/2 84/84/2 85/85/2
f 50/50/2 85/85/2 86/86/2
f 50/50/2 86/86/2 87/87/2
f 50/50/2 87/87/2 88/88/2
f 50/50/2 88/88/2 89/89/2
f 50/50/2 89/89/2 90/90/2
f 50/50/2 90/90/2 91/91/2
f 50/50/2 91/91/2 92/92/2
f 50/50/2 92/92/2 93/93/2
f 50/50/2 93/93/2 94/94/2
f 50/50/2 94/94/2 95/95/2
f 50/50/2 95/95/2 96/96/2
f 50/50/2 96/96/2 97/97/2
f 50/50/2 97/97/2 98/98/2
f 50/50/2 98/98/2 51/51/2
g right
v 0.000000 -0.500000 0.500000
v 0.000000 -0.000000 0.500000
v -0.065263 -0.000000 0.495723
v -0.065263 -0.500000 0.495723
v -0.129409 -0.000000 0.482963
v -0.129409 -0.500000 0.482963
v -0.191342 -0.000000 0.461940
v -0.191342 -0.500000 0.461940
v -0.250000 -0.000000 0.433013
v -0.250000 -0.500000 0.433013
v -0.304381 -0.000000 0.396677
v -0.304381 -0.500000 0.396677
v -0.353553 -0.000000 0.353554
v -0.353553 -0.500000 0.353554
v -0.396677 -0.000000 0.304381
v -0.396677 -0.500000 0.304381
v -0.433013 -0.000000 0.250000
v -0.433013 -0.500000 0.250000
v -0.461940 -0.000000 0.191342
v -0.461940 -0.500000 0.191342
v -0.482963 -0.000000 0.129409
v -0.482963 -0.500000 0.129409
v -0.495722 -0.000000 0.065263
v -0.495722 -0.500000 0.065263
v -0.500000 0.000000 0.000000
v -0.500000 -0.500000 -0.000000
v -0.495722 0.000000 -0.065263
v -0.495722 -0.500000 -0.065263
v -0.482963 0.000000 -0.129410
v -0.482963 -0.500000 -0.129410
v -0.461940 0.000000 -0.191342
v -0.461940 -0.500000 -0.191342
v -0.433012 0.000000 -0.250001
v -0.433012 -0.500000 -0.250001
vt 1.0000 0.0000
vt 1.0000 0.5000
vt 0.9375 0.5000
vt 0.9375 0.0000
vt 0.8750 0.5000
vt 0.8750 0.0000
vt 0.8125 0.5000
vt 0.8125 0.0000
vt 0.7500 0.5000
vt 0.7500 0.0000
vt 0.6875 0.5000
vt 0.6875 0.0000
vt 0.6250 0.5000
vt 0.6250 0.0000
vt 0.5625 0.5000
vt 0.5625 0.0000
vt 0.5000 0.5000
vt 0.5000 0.0000
vt 0.4375 0.5000
vt 0.4375 0.0000
vt 0.3750 0.5000
vt 0.3750 0.0000
vt 0.3125 0.5000
vt 0.3125 0.0000
vt 0.2500 0.5000
vt 0.2500 0.0000
vt 0.1875 0.5000
vt 0.1875 0.0000
vt 0.1250 0.5000
vt 0.1250 0.0000
vt 0.0625 0.5000
vt 0.0625 0.0000
vt 0.0000 0.5000
vt 0.0000 0.0000
vn -0.0654 -0.0000 0.9979
vn -0.1951 -0.0000 0.9808
vn -0.3214 -0.0000 0.9469
vn -0.4423 -0.0000 0.8969
vn -0.5556 -0.0000 0.8315
vn -0.6593 -0.0000 0.7518
vn -0.7518 -0.0000 0.6593
vn -0.8315 -0.0000 0.5556
vn -0.8969 -0.0000 0.4423
vn -0.9469 -0.0000 0.3214
vn -0.9808 0.0000 0.1951
vn -0.9979 0.0000 0.0654
vn -0.9979 0.0000 -0.0654
vn -0.9808 0.0000 -0.1951
vn -0.9469 0.0000 -0.3214
vn -0.8969 0.0000 -0.4423
s off
f 99/99/3 100/100/3 101/101/3 102/102/3
f 102/102/4 101/101/4 103/103/4 104/104/4
f 104/104/5 103/103/5 105/105/5 106/106/5
f 106/106/6 105/105/6 107/107/6 108/108/6
f 108/108/7 107/107/7 109/109/7 110/110/7
f 110/110/8 109/109/8 111/111/8 112/112/8
f 112/112/9 111/111/9 113/113/9 114/114/9
f 114/114/10 113/113/10 115/115/10 116/116/10
f 116/116/11 115/115/11 117/117/11 118/118/11
f 118/118/12 117/117/12 119/119/12 120/120/12
f 120/120/13 119/119/13 121/121/13 122/122/13
f 122/122/14 121/121/14 123/123/14 124/124/14
f 124/124/15 123/123/15 125/125/15 126/126/15
f 126/126/16 125/125/16 127/127/16 128/128/16
f 128/128/17 127/127/17 129/129/17 130/130/17
f 130/130/18 129/129/18 131/131/18 132/132/18
g left
v 0.433013 -0.500000 -0.250000
v 0.433013 0.000000 -0.250000
v 0.461940 0.000000 -0.191342
v 0.461940 -0.500000 -0.191342
v 0.482963 0.000000 -0.129410
v 0.482963 -0.500000 -0.129410
v 0.495722 0.000000 -0.065263
v 0.495722 -0.500000 -0.065263
v 0.500000 0.000000 0.000000
v 0.500000 -0.500000 -0.000000
v 0.495723 -0.000000 0.065263
v 0.495723 -0.500000 0.065263
v 0.482963 -0.000000 0.129409
v 0.482963 -0.500000 0.129409
v 0.461940 -0.000000 0.191342
v 0.461940 -0.500000 0.191342
v 0.433013 -0.000000 0.250000
v 0.433013 -0.500000 0.250000
v 0.396677 -0.000000 0.304381
v 0.396677 -0.500000 0.304381
v 0.353553 -0.000000 0.353554
v 0.353553 -0.500000 0.353554
v 0.304381 -0.000000 0.396677
v 0.304381 -0.500000 0.396677
v 0.250000 -0.000000 0.433013
v 0.250000 -0.500000 0.433013
v 0.191341 -0.000000 0.461940
v 0.191341 -0.500000 0.461940
v 0.129409 -0.000000 0.482963
v 0.129409 -0.500000 0.482963
v 0.065262 -0.000000 0.495723
v 0.065262 -0.500000 0.495723
v -0.000001 -0.000000 0.500000
v -0.000001 -0.500000 0.500000
vt 1.0000 0.0000
vt 1.0000 0.5000
vt 0.9375 0.5000
vt 0.9375 0.0000
vt 0.8750 0.5000
vt 0.8750 0.0000
vt 0.8125 0.5000
vt 0.8125 0.0000
vt 0.7500 0.5000
vt 0.7500 0.0000
vt 0.6875 0.5000
vt 0.6875 0.0000
vt 0.6250 0.5000
vt 0.6250 0.0000
vt 0.5625 0.5000
vt 0.5625 0.0000
vt 0.5000 0.5000
vt 0.5000 0.0000
vt 0.4375 0.5000
vt 0.4375 0.0000
vt 0.3750 0.5000
vt 0.3750 0.0000
vt 0.3125 0.5000
vt 0.3125 0.0000
vt 0.2500 0.5000
vt 0.2500 0.0000
vt 0.1875 0.5000
vt 0.1875 0.0000
vt 0.1250 0.5000
vt 0.1250 0.0000
vt 0.0625 0.5000
vt 0.0625 0.0000
vt 0.0000 0.5000
vt 0.0000 0.0000
vn 0.8969 0.0000 -0.4423
vn 0.9469 0.0000 -0.3214
vn 0.9808 -0.0000 -0.1951
vn 0.9979 -0.0000 -0.0654
vn 0.9979 -0.0000 0.0654
vn 0.9808 -0.0000 0.1951
vn 0.9469 -0.0000 0.3214
vn 0.8969 -0.0000 0.4423
vn 0.8315 -0.0000 0.5556
vn 0.7518 -0.0000 0.6593
vn 0.6593 -0.0000 0.7518
vn 0.5556 -0.0000 0.8315
vn 0.4423 -0.0000 0.8969
vn 0.3214 -0.0000 0.9469
vn 0.1951 -0.0000 0.9808
vn 0.0654 -0.0000 0.9979
s off
f 133/133/19 134/134/19 135/135/19 136/136/19
f 136/136/20 135/135/20 137/137/20 138/138/20
f 138/138/21 137/137/21 139/139/21 140/140/21
f 140/140/22 139/139/22 141/141/22 142/142/22
f 142/142/23 141/141/23 143/143/23 144/144/23
f 144/144/24 143/143/24 145/145/24 146/146/24
f 146/146/25 145/145/25 147/147/25 148/148/25
f 148/148/26 147/147/26 149/149/26 150/150/26
f 150/150/27 149/149/27 151/151/27 152/152/27
f 152/152/28 151/151/28 153/153/28 154/154/28
f 154/154/29 153/153/29 155/155/29 156/156/29
f 156/156/30 155/155/30 157/157/30 158/158/30
f 158/158/31 157/157/31 159/159/31 160/160/31
f 160/160/32 159/159/32 161/161/32 162/162/32
f 162/162/33 161/161/33 163/163/33 164/164/33
f 164/164/34 163/163/34 165/165/34 166/166/34
g front
v -0.433013 -0.500000 -0.250000
v -0.433013 0.000000 -0.250000
v -0.396677 0.000000 -0.304381
v -0.396677 -0.500000 -0.304381
v -0.353554 0.000000 -0.353553
v -0.353554 -0.500000 -0.353553
v -0.304381 0.000000 -0.396677
v -0.304381 -0.500000 -0.396677
v -0.250000 0.000000 -0.433013
v -0.250000 -0.500000 -0.433013
v -0.191342 0.000000 -0.461940
v -0.191342 -0.500000 -0.461940
v -0.129410 0.000000 -0.482963
v -0.129410 -0.500000 -0.482963
v -0.065263 0.000000 -0.495722
v -0.065263 -0.500000 -0.495722
v 0.000000 0.000000 -0.500000
v 0.000000 -0.500000 -0.500000
v 0.065263 0.000000 -0.495723
v 0.065263 -0.500000 -0.495723
v 0.129410 0.000000 -0.482963
v 0.129410 -0.500000 -0.482963
v 0.191342 0.000000 -0.461940
v 0.191342 -0.500000 -0.461940
v 0.250000 0.000000 -0.433013
v 0.250000 -0.500000 -0.433013
v 0.304381 0.000000 -0.396676
v 0.304381 -0.500000 -0.396676
v 0.353554 0.000000 -0.353553
v 0.353554 -0.500000 -0.353553
v 0.396677 0.000000 -0.304380
v 0.396677 -0.500000 -0.304380
v 0.433013 0.000000 -0.249999
v 0.433013 -0.500000 -0.249999
vt 1.0000 0.0000
vt 1.0000 0.5000
vt 0.9375 0.5000
vt 0.9375 0.0000
vt 0.8750 0.5000
vt 0.8750 0.0000
vt 0.8125 0.5000
vt 0.8125 0.0000
vt 0.7500 0.5000
vt 0.7500 0.0000
vt 0.6875 0.5000
vt 0.6875 0.0000
vt 0.6250 0.5000
vt 0.6250 0.0000
vt 0.5625 0.5000
vt 0.5625 0.0000
vt 0.5000 0.5000
vt 0.5000 0.0000
vt 0.4375 0.5000
vt 0.4375 0.0000
vt 0.3750 0.5000
vt 0.3750 0.0000
vt 0.3125 0.5000
vt 0.3125 0.0000
vt 0.2500 0.5000
vt 0.2500 0.0000
vt 0.1875 0.5000
vt 0.1875 0.0000
vt 0.1250 0.5000
vt 0.1250 0.0000
vt 0.0625 0.5000
vt 0.0625 0.0000
vt 0.0000 0.5000
vt 0.0000 0.0000
vn -0.8315 0.0000 -0.5556
vn -0.7518 0.0000 -0.6593
vn -0.6593 0.0000 -0.7518
vn -0.5556 0.0000 -0.8315
vn -0.4423 0.0000 -0.8969
vn -0.3214 0.0000 -0.9469
vn -0.1951 0.0000 -0.9808
vn -0.0654 0.0000 -0.9979
vn 0.0654 0.0000 -0.9979
vn 0.1951 0.0000 -0.9808
vn 0.3214 0.0000 -0.9469
vn 0.4423 0.0000 -0.8969
vn 0.5556 0.0000 -0.8315
vn 0.6593 0.0000 -0.7518
vn 0.7518 0.0000 -0.6593
vn 0.8315 0.0000 -0.5556
s off
f 167/167/35 168/168/35 169/169/35 170/170/35
f 170/170/36 169/169/36 171/171/36 172/172/36
f 172/172/37 171/171/37 173/173/37 174/174/37
f 174/174/38 173/173/38 175/175/38 176/176/38
f 176/176/39 175/175/39 177/177/39 178/178/39
f 178/178/40 177/177/40 179/179/40 180/180/40
f 180/180/41 179/179/41 181/181/41 182/182/41
f 182/182/42 181/181/42 183/183/42 184/184/42
f 184/184/43 183/183/43 185/185/43 186/186/43
f 186/186/44 185/185/44 187/187/44 188/188/44
f 188/188/45 187/187/45 189/189/45 190/190/45
f 190/190/46 189/189/46 191/191/46 192/192/46
f 192/192/47 191/191/47 193/193/47 194/194/47
f 194/194/48 193/193/48 195/195/48 196/196/48
f 196/196/49 195/195/49 197/197/49 198/198/49
f 198/198/50 197/197/50 199/199/50 200/200/50
