g top
v 0.000000 0.500000 0.000000
v 0.000000 0.500000 -0.159200
v 0.060923 0.500000 -0.147082
v 0.112571 0.500000 -0.112571
v 0.147082 0.500000 -0.060923
v 0.159200 0.500000 0.000000
v 0.147082 0.500000 0.060923
v 0.112571 0.500000 0.112571
v 0.060923 0.500000 0.147082
v 0.000000 0.500000 0.159200
v -0.060923 0.500000 0.147082
v -0.112571 0.500000 0.112571
v -0.147082 0.500000 0.060923
v -0.159200 0.500000 0.000000
v -0.147082 0.500000 -0.060923
v -0.112571 0.500000 -0.112571
v -0.060923 0.500000 -0.147082
vt 0.5000 0.5000
vt 0.4391 0.3530
vt 0.5000 0.3408
vt 0.3875 0.3875
vt 0.3530 0.4391
vt 0.3408 0.5000
vt 0.3530 0.5609
vt 0.3875 0.6125
vt 0.4391 0.6470
vt 0.5000 0.6592
vt 0.5609 0.6470
vt 0.6125 0.6125
vt 0.6470 0.5609
vt 0.6592 0.5000
vt 0.6470 0.4391
vt 0.6125 0.3875
vt 0.5609 0.3530
vn 0.0000 1.0000 0.0000
s off
f 1/1/1 3/2/1 2/3/1
f 1/1/1 4/4/1 3/2/1
f 1/1/1 5/5/1 4/4/1
f 1/1/1 6/6/1 5/5/1
f 1/1/1 7/7/1 6/6/1
f 1/1/1 8/8/1 7/7/1
f 1/1/1 9/9/1 8/8/1
f 1/1/1 10/10/1 9/9/1
f 1/1/1 11/11/1 10/10/1
f 1/1/1 12/12/1 11/11/1
f 1/1/1 13/13/1 12/12/1
f 1/1/1 14/14/1 13/13/1
f 1/1/1 15/15/1 14/14/1
f 1/1/1 16/16/1 15/15/1
f 1/1/1 17/17/1 16/16/1
f 1/1/1 2/3/1 17/17/1
g bottom
v 0.000000 -0.500000 0.000000
v 0.000000 -0.500000 -0.159200
v 0.060923 -0.500000 -0.147082
v 0.112571 -0.500000 -0.112571
v 0.147082 -0.500000 -0.060923
v 0.159200 -0.500000 0.000000
v 0.147082 -0.500000 0.060923
v 0.112571 -0.500000 0.112571
v 0.060923 -0.500000 0.147082
v 0.000000 -0.500000 0.159200
v -0.060923 -0.500000 0.147082
v -0.112571 -0.500000 0.112571
v -0.147082 -0.500000 0.060923
v -0.159200 -0.500000 0.000000
v -0.147082 -0.500000 -0.060923
v -0.112571 -0.500000 -0.112571
v -0.060923 -0.500000 -0.147082
vt 0.5000 0.5000
vt 0.5000 0.6592
vt 0.4391 0.6470
vt 0.3875 0.6125
vt 0.3530 0.5609
vt 0.3408 0.5000
vt 0.3530 0.4391
vt 0.3875 0.3875
vt 0.4391 0.3530
vt 0.5000 0.3408
vt 0.5609 0.3530
vt 0.6125 0.3875
vt 0.6470 0.4391
vt 0.6592 0.5000
vt 0.6470 0.5609
vt 0.6125 0.6125
vt 0.5609 0.6470
vn 0.0000 -1.0000 0.0000
s off
f 18/18/2 19/19/2 20/20/2
f 18/18/2 20/20/2 21/21/2
f 18/18/2 21/21/2 22/22/2
f 18/18/2 22/22/2 23/23/2
f 18/18/2 23/23/2 24/24/2
f 18/18/2 24/24/2 25/25/2
f 18/18/2 25/25/2 26/26/2
f 18/18/2 26/26/2 27/27/2
f 18/18/2 27/27/2 28/28/2
f 18/18/2 28/28/2 29/29/2
f 18/18/2 29/29/2 30/30/2
f 18/18/2 30/30/2 31/31/2
f 18/18/2 31/31/2 32/32/2
f 18/18/2 32/32/2 33/33/2
f 18/18/2 33/33/2 34/34/2
f 18/18/2 34/34/2 19/19/2
g sides
v 0.000000 -0.500000 -0.159200
v 0.000000 0.500000 -0.159200
v 0.060923 -0.500000 -0.147082
v 0.060923 0.500000 -0.147082
v 0.112571 -0.500000 -0.112571
v 0.112571 0.500000 -0.112571
v 0.147082 -0.500000 -0.060923
v 0.147082 0.500000 -0.060923
v 0.159200 -0.500000 0.000000
v 0.159200 0.500000 0.000000
v 0.147082 -0.500000 0.060923
v 0.147082 0.500000 0.060923
v 0.112571 -0.500000 0.112571
v 0.112571 0.500000 0.112571
v 0.060923 -0.500000 0.147082
v 0.060923 0.500000 0.147082
v 0.000000 -0.500000 0.159200
v 0.000000 0.500000 0.159200
v -0.060923 -0.500000 0.147082
v -0.060923 0.500000 0.147082
v -0.112571 -0.500000 0.112571
v -0.112571 0.500000 0.112571
v -0.147082 -0.500000 0.060923
v -0.147082 0.500000 0.060923
v -0.159200 -0.500000 0.000000
v -0.159200 0.500000 0.000000
v -0.147082 -0.500000 -0.060923
v -0.147082 0.500000 -0.060923
v -0.112571 -0.500000 -0.112571
v -0.112571 0.500000 -0.112571
v -0.060923 -0.500000 -0.147082
v -0.060923 0.500000 -0.147082
vt 0.5000 0.0000
vt 0.5000 1.0000
vt 0.4375 1.0000
vt 0.4375 0.0000
vt 0.3750 1.0000
vt 0.3750 0.0000
vt 0.3125 1.0000
vt 0.3125 0.0000
vt 0.2500 1.0000
vt 0.2500 0.0000
vt 0.1875 1.0000
vt 0.1875 0.0000
vt 0.1250 1.0000
vt 0.1250 0.0000
vt 0.0625 1.0000
vt 0.0625 0.0000
vt 0.0000 1.0000
vt 0.0000 0.0000
vt 1.0000 0.0000
vt 1.0000 1.0000
vt 0.9375 1.0000
vt 0.9375 0.0000
vt 0.8750 1.0000
vt 0.8750 0.0000
vt 0.8125 1.0000
vt 0.8125 0.0000
vt 0.7500 1.0000
vt 0.7500 0.0000
vt 0.6875 1.0000
vt 0.6875 0.0000
vt 0.6250 1.0000
vt 0.6250 0.0000
vt 0.5625 1.0000
vt 0.5625 0.0000
vn 0.1951 0.0000 -0.9808
vn 0.5556 0.0000 -0.8315
vn 0.8315 0.0000 -0.5556
vn 0.9808 0.0000 -0.1951
vn 0.9808 0.0000 0.1951
vn 0.8315 0.0000 0.5556
vn 0.5556 0.0000 0.8315
vn 0.1951 0.0000 0.9808
vn -0.1951 0.0000 0.9808
vn -0.5556 0.0000 0.8315
vn -0.8315 0.0000 0.5556
vn -0.9808 0.0000 0.1951
vn -0.9808 0.0000 -0.1951
vn -0.8315 0.0000 -0.5556
vn -0.5556 0.0000 -0.8315
vn -0.1951 0.0000 -0.9808
s off
f 35/35/3 36/36/3 38/37/3 37/38/3
f 37/38/4 38/37/4 40/39/4 39/40/4
f 39/40/5 40/39/5 42/41/5 41/42/5
f 41/42/6 42/41/6 44/43/6 43/44/6
f 43/44/7 44/43/7 46/45/7 45/46/7
f 45/46/8 46/45/8 48/47/8 47/48/8
f 47/48/9 48/47/9 50/49/9 49/50/9
f 49/50/10 50/49/10 52/51/10 51/52/10
f 51/53/11 52/54/11 54/55/11 53/56/11
f 53/56/12 54/55/12 56/57/12 55/58/12
f 55/58/13 56/57/13 58/59/13 57/60/13
f 57/60/14 58/59/14 60/61/14 59/62/14
f 59/62/15 60/61/15 62/63/15 61/64/15
f 61/64/16 62/63/16 64/65/16 63/66/16
f 63/66/17 64/65/17 66/67/17 65/68/17
f 65/68/18 66/67/18 36/36/18 35/35/18
