g top
v 0.000000 0.500000 0.000000
v 0.000000 0.500000 -0.318300
v 0.062097 0.500000 -0.312184
v 0.121808 0.500000 -0.294071
v 0.176838 0.500000 -0.264657
v 0.225072 0.500000 -0.225072
v 0.264657 0.500000 -0.176838
v 0.294071 0.500000 -0.121808
v 0.312184 0.500000 -0.062097
v 0.318300 0.500000 -0.000000
v 0.312184 0.500000 0.062097
v 0.294071 0.500000 0.121808
v 0.264657 0.500000 0.176838
v 0.225072 0.500000 0.225072
v 0.176838 0.500000 0.264657
v 0.121808 0.500000 0.294071
v 0.062097 0.500000 0.312184
v -0.000000 0.500000 0.318300
v -0.062097 0.500000 0.312184
v -0.121808 0.500000 0.294071
v -0.176838 0.500000 0.264657
v -0.225072 0.500000 0.225072
v -0.264657 0.500000 0.176838
v -0.294071 0.500000 0.121808
v -0.312184 0.500000 0.062097
v -0.318300 0.500000 -0.000000
v -0.312184 0.500000 -0.062098
v -0.294071 0.500000 -0.121808
v -0.264657 0.500000 -0.176838
v -0.225072 0.500000 -0.225072
v -0.176838 0.500000 -0.264657
v -0.121808 0.500000 -0.294071
v -0.062097 0.500000 -0.312184
vt 0.5000 0.5000
vt 0.4379 0.1878
vt 0.5000 0.1817
vt 0.3782 0.2059
vt 0.3232 0.2353
vt 0.2749 0.2749
vt 0.2353 0.3232
vt 0.2059 0.3782
vt 0.1878 0.4379
vt 0.1817 0.5000
vt 0.1878 0.5621
vt 0.2059 0.6218
vt 0.2353 0.6768
vt 0.2749 0.7251
vt 0.3232 0.7647
vt 0.3782 0.7941
vt 0.4379 0.8122
vt 0.5000 0.8183
vt 0.5621 0.8122
vt 0.6218 0.7941
vt 0.6768 0.7647
vt 0.7251 0.7251
vt 0.7647 0.6768
vt 0.7941 0.6218
vt 0.8122 0.5621
vt 0.8183 0.5000
vt 0.8122 0.4379
vt 0.7941 0.3782
vt 0.7647 0.3232
vt 0.7251 0.2749
vt 0.6768 0.2353
vt 0.6218 0.2059
vt 0.5621 0.1878
vn 0.0000 1.0000 0.0000
s off
f 1/1/1 3/2/1 2/3/1
f 1/1/1 4/4/1 3/2/1
f 1/1/1 5/5/1 4/4/1
f 1/1/1 6/6/1 5/5/1
f 1/1/1 7/7/1 6/6/1
f 1/1/1 8/8/1 7/7/1
f 1/1/1 9/9/1 8/8/1
f 1/1/1 10/10/1 9/9/1
f 1/1/1 11/11/1 10/10/1
f 1/1/1 12/12/1 11/11/1
f 1/1/1 13/13/1 12/12/1
f 1/1/1 14/14/1 13/13/1
f 1/1/1 15/15/1 14/14/1
f 1/1/1 16/16/1 15/15/1
f 1/1/1 17/17/1 16/16/1
f 1/1/1 18/18/1 17/17/1
f 1/1/1 19/19/1 18/18/1
f 1/1/1 20/20/1 19/19/1
f 1/1/1 21/21/1 20/20/1
f 1/1/1 22/22/1 21/21/1
f 1/1/1 23/23/1 22/22/1
f 1/1/1 24/24/1 23/23/1
f 1/1/1 25/25/1 24/24/1
f 1/1/1 26/26/1 25/25/1
f 1/1/1 27/27/1 26/26/1
f 1/1/1 28/28/1 27/27/1
f 1/1/1 29/29/1 28/28/1
f 1/1/1 30/30/1 29/29/1
f 1/1/1 31/31/1 30/30/1
f 1/1/1 32/32/1 31/31/1
f 1/1/1 33/33/1 32/32/1
f 1/1/1 2/3/1 33/33/1
g bottom
v 0.000000 -0.500000 0.000000
v 0.000000 -0.500000 -0.318300
v 0.062097 -0.500000 -0.312184
v 0.121808 -0.500000 -0.294071
v 0.176838 -0.500000 -0.264657
v 0.225072 -0.500000 -0.225072
v 0.264657 -0.500000 -0.176838
v 0.294071 -0.500000 -0.121808
v 0.312184 -0.500000 -0.062097
v 0.318300 -0.500000 -0.000000
v 0.312184 -0.500000 0.062097
v 0.294071 -0.500000 0.121808
v 0.264657 -0.500000 0.176838
v 0.225072 -0.500000 0.225072
v 0.176838 -0.500000 0.264657
v 0.121808 -0.500000 0.294071
v 0.062097 -0.500000 0.312184
v -0.000000 -0.500000 0.318300
v -0.062097 -0.500000 0.312184
v -0.121808 -0.500000 0.294071
v -0.176838 -0.500000 0.264657
v -0.225072 -0.500000 0.225072
v -0.264657 -0.500000 0.176838
v -0.294071 -0.500000 0.121808
v -0.312184 -0.500000 0.062097
v -0.318300 -0.500000 -0.000000
v -0.312184 -0.500000 -0.062098
v -0.294071 -0.500000 -0.121808
v -0.264657 -0.500000 -0.176838
v -0.225072 -0.500000 -0.225072
v -0.176838 -0.500000 -0.264657
v -0.121808 -0.500000 -0.294071
v -0.062097 -0.500000 -0.312184
vt 0.5000 0.5000
vt 0.5000 0.8183
vt 0.4379 0.8122
vt 0.3782 0.7941
vt 0.3232 0.7647
vt 0.2749 0.7251
vt 0.2353 0.6768
vt 0.2059 0.6218
vt 0.1878 0.5621
vt 0.1817 0.5000
vt 0.1878 0.4379
vt 0.2059 0.3782
vt 0.2353 0.3232
vt 0.2749 0.2749
vt 0.3232 0.2353
vt 0.3782 0.2059
vt 0.4379 0.1878
vt 0.5000 0.1817
vt 0.5621 0.1878
vt 0.6218 0.2059
vt 0.6768 0.2353
vt 0.7251 0.2749
vt 0.7647 0.3232
vt 0.7941 0.3782
vt 0.8122 0.4379
vt 0.8183 0.5000
vt 0.8122 0.5621
vt 0.7941 0.6218
vt 0.7647 0.6768
vt 0.7251 0.7251
vt 0.6768 0.7647
vt 0.6218 0.7941
vt 0.5621 0.8122
vn 0.0000 -1.0000 0.0000
s off
f 34/34/2 35/35/2 36/36/2
f 34/34/2 36/36/2 37/37/2
f 34/34/2 37/37/2 38/38/2
f 34/34/2 38/38/2 39/39/2
f 34/34/2 39/39/2 40/40/2
f 34/34/2 40/40/2 41/41/2
f 34/34/2 41/41/2 42/42/2
f 34/34/2 42/42/2 43/43/2
f 34/34/2 43/43/2 44/44/2
f 34/34/2 44/44/2 45/45/2
f 34/34/2 45/45/2 46/46/2
f 34/34/2 46/46/2 47/47/2
f 34/34/2 47/47/2 48/48/2
f 34/34/2 48/48/2 49/49/2
f 34/34/2 49/49/2 50/50/2
f 34/34/2 50/50/2 51/51/2
f 34/34/2 51/51/2 52/52/2
f 34/34/2 52/52/2 53/53/2
f 34/34/2 53/53/2 54/54/2
f 34/34/2 54/54/2 55/55/2
f 34/34/2 55/55/2 56/56/2
f 34/34/2 56/56/2 57/57/2
f 34/34/2 57/57/2 58/58/2
f 34/34/2 58/58/2 59/59/2
f 34/34/2 59/59/2 60/60/2
f 34/34/2 60/60/2 61/61/2
f 34/34/2 61/61/2 62/62/2
f 34/34/2 62/62/2 63/63/2
f 34/34/2 63/63/2 64/64/2
f 34/34/2 64/64/2 65/65/2
f 34/34/2 65/65/2 66/66/2
f 34/34/2 66/66/2 35/35/2
g back
v -0.000000 -0.500000 0.318300
v -0.000000 0.500000 0.318300
v -0.062097 -0.500000 0.312184
v -0.062097 0.500000 0.312184
v -0.121808 -0.500000 0.294071
v -0.121808 0.500000 0.294071
v -0.176838 -0.500000 0.264657
v -0.176838 0.500000 0.264657
v -0.225072 -0.500000 0.225072
v -0.225072 0.500000 0.225072
v -0.264657 -0.500000 0.176838
v -0.264657 0.500000 0.176838
v -0.294071 -0.500000 0.121808
v -0.294071 0.500000 0.121808
v -0.312184 -0.500000 0.062097
v -0.312184 0.500000 0.062097
v -0.318300 -0.500000 -0.000000
v -0.318300 0.500000 -0.000000
v 0.318300 -0.500000 0.000000
v 0.318300 0.500000 0.000000
v 0.312184 -0.500000 0.062098
v 0.312184 0.500000 0.062098
v 0.294071 -0.500000 0.121809
v 0.294071 0.500000 0.121809
v 0.264657 -0.500000 0.176838
v 0.264657 0.500000 0.176838
v 0.225072 -0.500000 0.225072
v 0.225072 0.500000 0.225072
v 0.176838 -0.500000 0.264657
v 0.176838 0.500000 0.264657
v 0.121808 -0.500000 0.294071
v 0.121808 0.500000 0.294071
v 0.062097 -0.500000 0.312184
v 0.062097 0.500000 0.312184
vt 0.5000 -0.0000
vt 0.5000 1.0000
vt 0.4375 1.0000
vt 0.4375 0.0000
vt 0.3750 1.0000
vt 0.3750 0.0000
vt 0.3125 1.0000
vt 0.3125 0.0000
vt 0.2500 1.0000
vt 0.2500 0.0000
vt 0.1875 1.0000
vt 0.1875 0.0000
vt 0.1250 1.0000
vt 0.1250 0.0000
vt 0.0625 1.0000
vt 0.0625 0.0000
vt 0.0000 1.0000
vt 0.0000 -0.0000
vt 1.0000 -0.0000
vt 1.0000 1.0000
vt 0.9375 1.0000
vt 0.9375 -0.0000
vt 0.8750 1.0000
vt 0.8750 -0.0000
vt 0.8125 1.0000
vt 0.8125 -0.0000
vt 0.7500 1.0000
vt 0.7500 -0.0000
vt 0.6875 1.0000
vt 0.6875 -0.0000
vt 0.6250 1.0000
vt 0.6250 -0.0000
vt 0.5625 1.0000
vt 0.5625 -0.0000
vn -0.0980 0.0000 0.9952
vn -0.2903 0.0000 0.9569
vn -0.4714 0.0000 0.8819
vn -0.6344 0.0000 0.7730
vn -0.7730 0.0000 0.6344
vn -0.8819 0.0000 0.4714
vn -0.9569 0.0000 0.2903
vn -0.9952 0.0000 0.0980
vn 0.9952 0.0000 0.0980
vn 0.9569 0.0000 0.2903
vn 0.8819 0.0000 0.4714
vn 0.7730 0.0000 0.6344
vn 0.6344 0.0000 0.7730
vn 0.4714 0.0000 0.8819
vn 0.2903 0.0000 0.9569
vn 0.0980 0.0000 0.9952
s off
f 67/67/3 68/68/3 70/69/3 69/70/3
f 69/70/4 70/69/4 72/71/4 71/72/4
f 71/72/5 72/71/5 74/73/5 73/74/5
f 73/74/6 74/73/6 76/75/6 75/76/6
f 75/76/7 76/75/7 78/77/7 77/78/7
f 77/78/8 78/77/8 80/79/8 79/80/8
f 79/80/9 80/79/9 82/81/9 81/82/9
f 81/82/10 82/81/10 84/83/10 83/84/10
f 85/85/11 86/86/11 88/87/11 87/88/11
f 87/88/12 88/87/12 90/89/12 89/90/12
f 89/90/13 90/89/13 92/91/13 91/92/13
f 91/92/14 92/91/14 94/93/14 93/94/14
f 93/94/15 94/93/15 96/95/15 95/96/15
f 95/96/16 96/95/16 98/97/16 97/98/16
f 97/98/17 98/97/17 100/99/17 99/100/17
f 99/100/18 100/99/18 68/68/18 67/67/18
g front
v 0.000000 -0.500000 -0.318300
v 0.000000 0.500000 -0.318300
v 0.062097 -0.500000 -0.312184
v 0.062097 0.500000 -0.312184
v 0.121808 -0.500000 -0.294071
v 0.121808 0.500000 -0.294071
v 0.176838 -0.500000 -0.264657
v 0.176838 0.500000 -0.264657
v 0.225072 -0.500000 -0.225072
v 0.225072 0.500000 -0.225072
v 0.264657 -0.500000 -0.176838
v 0.264657 0.500000 -0.176838
v 0.294071 -0.500000 -0.121808
v 0.294071 0.500000 -0.121808
v 0.312184 -0.500000 -0.062097
v 0.312184 0.500000 -0.062097
v 0.318300 -0.500000 -0.000000
v 0.318300 0.500000 -0.000000
v -0.318300 -0.500000 -0.000000
v -0.318300 0.500000 -0.000000
v -0.312184 -0.500000 -0.062098
v -0.312184 0.500000 -0.062098
v -0.294071 -0.500000 -0.121808
v -0.294071 0.500000 -0.121808
v -0.264657 -0.500000 -0.176838
v -0.264657 0.500000 -0.176838
v -0.225072 -0.500000 -0.225072
v -0.225072 0.500000 -0.225072
v -0.176838 -0.500000 -0.264657
v -0.176838 0.500000 -0.264657
v -0.121808 -0.500000 -0.294071
v -0.121808 0.500000 -0.294071
v -0.062097 -0.500000 -0.312184
v -0.062097 0.500000 -0.312184
vt 0.5000 -0.0000
vt 0.5000 1.0000
vt 0.4375 1.0000
vt 0.4375 -0.0000
vt 0.3750 1.0000
vt 0.3750 -0.0000
vt 0.3125 1.0000
vt 0.3125 -0.0000
vt 0.2500 1.0000
vt 0.2500 0.0000
vt 0.1875 1.0000
vt 0.1875 0.0000
vt 0.1250 1.0000
vt 0.1250 0.0000
vt 0.0625 1.0000
vt 0.0625 0.0000
vt 0.0000 1.0000
vt 0.0000 0.0000
vt 1.0000 0.0000
vt 1.0000 1.0000
vt 0.9375 1.0000
vt 0.9375 -0.0000
vt 0.8750 1.0000
vt 0.8750 -0.0000
vt 0.8125 1.0000
vt 0.8125 -0.0000
vt 0.7500 1.0000
vt 0.7500 -0.0000
vt 0.6875 1.0000
vt 0.6875 -0.0000
vt 0.6250 1.0000
vt 0.6250 -0.0000
vt 0.5625 1.0000
vt 0.5625 -0.0000
vn 0.0980 0.0000 -0.9952
vn 0.2903 0.0000 -0.9569
vn 0.4714 0.0000 -0.8819
vn 0.6344 0.0000 -0.7730
vn 0.7730 0.0000 -0.6344
vn 0.8819 0.0000 -0.4714
vn 0.9569 0.0000 -0.2903
vn 0.9952 0.0000 -0.0980
vn -0.9952 0.0000 -0.0980
vn -0.9569 0.0000 -0.2903
vn -0.8819 0.0000 -0.4714
vn -0.7730 0.0000 -0.6344
vn -0.6344 0.0000 -0.7730
vn -0.4714 0.0000 -0.8819
vn -0.2903 0.0000 -0.9569
vn -0.0980 0.0000 -0.9952
s off
f 101/101/19 102/102/19 104/103/19 103/104/19
f 103/104/20 104/103/20 106/105/20 105/106/20
f 105/106/21 106/105/21 108/107/21 107/108/21
f 107/108/22 108/107/22 110/109/22 109/110/22
f 109/110/23 110/109/23 112/111/23 111/112/23
f 111/112/24 112/111/24 114/113/24 113/114/24
f 113/114/25 114/113/25 116/115/25 115/116/25
f 115/116/26 116/115/26 118/117/26 117/118/26
f 119/119/27 120/120/27 122/121/27 121/122/27
f 121/122/28 122/121/28 124/123/28 123/124/28
f 123/124/29 124/123/29 126/125/29 125/126/29
f 125/126/30 126/125/30 128/127/30 127/128/30
f 127/128/31 128/127/31 130/129/31 129/130/31
f 129/130/32 130/129/32 132/131/32 131/132/32
f 131/132/33 132/131/33 134/133/33 133/134/33
f 133/134/34 134/133/34 102/102/34 101/101/34
